<svg width="36" height="37" viewBox="0 0 36 37" fill="none" xmlns="http://www.w3.org/2000/svg">
<path d="M19.3374 36.4712C28.2479 36.4712 35.4712 29.2478 35.4712 20.3374C35.4712 11.4269 28.2479 4.20357 19.3374 4.20357C10.4269 4.20357 3.20357 11.4269 3.20357 20.3374C3.20357 29.2478 10.4269 36.4712 19.3374 36.4712Z" fill="black" stroke="black" stroke-width="0.94247"/>
<mask id="path-2-outside-1_54_5908" maskUnits="userSpaceOnUse" x="0" y="0.108521" width="35" height="35" fill="black">
<rect fill="white" y="0.108521" width="35" height="35"/>
<path d="M7.37003 2.10852C6.26089 2.10852 5.35627 3.01163 5.35627 4.11892V8.16065L4.68502 8.83079C2.99115 11.3045 2 14.2992 2 17.5216C2 26.0343 8.91182 32.9346 17.4388 32.9346C25.9659 32.9346 32.8777 26.0343 32.8777 17.5216C32.8777 9.00879 25.9659 2.10852 17.4388 2.10852C14.4838 2.10852 11.7306 2.95404 9.3838 4.39116V4.11892C9.3838 3.01163 8.47918 2.10852 7.37003 2.10852ZM7.37003 3.44879C7.73975 3.44879 8.04129 3.74982 8.04129 4.11892V7.05075C10.6136 4.74717 13.941 3.44879 17.4388 3.44879C25.2107 3.44879 31.5352 9.76269 31.5352 17.5216C31.5352 25.2804 25.2107 31.5943 17.4388 31.5943C9.66698 31.5943 3.34251 25.2804 3.34251 17.5216C3.34251 15.2808 3.89315 13.0505 4.91576 11.0715L6.09046 11.6789C5.15175 13.4929 4.68502 15.4641 4.68502 17.5216C4.68502 24.5423 10.4064 30.2541 17.4388 30.2541C24.4713 30.2541 30.1927 24.5423 30.1927 17.5216C30.1927 10.5009 24.4713 4.78905 17.4388 4.78905C14.2294 4.78905 11.1773 6.00105 8.8384 8.13971H12.0688C12.4385 8.13971 12.7401 8.44075 12.7401 8.80984C12.7401 9.17894 12.4385 9.47998 12.0688 9.47998H6.69878V4.11892C6.69878 3.74982 7.00032 3.44879 7.37003 3.44879ZM17.4388 6.12932C17.8112 6.12932 18.1101 6.43035 18.1101 6.79945C18.1101 7.16854 17.8112 7.46958 17.4388 7.46958C17.0691 7.46958 16.7676 7.16854 16.7676 6.79945C16.7676 6.43035 17.0691 6.12932 17.4388 6.12932ZM22.9557 7.59523C23.0422 7.6057 23.1288 7.63188 23.2074 7.679C23.5273 7.86485 23.6244 8.28107 23.4382 8.60043C23.252 8.91979 22.8351 9.03759 22.5152 8.85173C22.1953 8.66587 22.0983 8.24966 22.2845 7.9303C22.4261 7.68947 22.6961 7.5612 22.9557 7.59523ZM26.6896 11.5323C26.9492 11.5008 27.2035 11.6265 27.3398 11.8673C27.5234 12.1893 27.4106 12.6055 27.0881 12.7888C26.7656 12.972 26.3697 12.8594 26.1861 12.5375C26.0026 12.2155 26.1153 11.7993 26.4378 11.616C26.5191 11.5689 26.603 11.5427 26.6896 11.5323ZM6.69878 16.8514C7.06849 16.8514 7.37003 17.1525 7.37003 17.5216C7.37003 17.8933 7.06849 18.1917 6.69878 18.1917C6.32907 18.1917 6.02753 17.8933 6.02753 17.5216C6.02753 17.1525 6.32907 16.8514 6.69878 16.8514ZM28.1789 16.8514C28.5513 16.8514 28.8502 17.1525 28.8502 17.5216C28.8502 17.8933 28.5513 18.1917 28.1789 18.1917C27.8066 18.1917 27.5077 17.8933 27.5077 17.5216C27.5077 17.1525 27.8066 16.8514 28.1789 16.8514ZM8.04129 22.1706C8.30088 22.1392 8.5526 22.2648 8.69157 22.5057C8.87511 22.8277 8.76236 23.2439 8.43985 23.4271C8.11733 23.6103 7.72139 23.4978 7.53785 23.1758C7.3543 22.8538 7.46705 22.4376 7.78957 22.2544C7.87085 22.2073 7.95476 22.1811 8.04129 22.1706ZM26.7945 22.2753C26.881 22.2858 26.9675 22.312 27.0462 22.3591C27.3661 22.5449 27.4867 22.9612 27.2979 23.2805C27.1117 23.5999 26.6948 23.6967 26.3749 23.5109C26.055 23.325 25.937 22.9088 26.1232 22.5894C26.2622 22.3486 26.5349 22.2413 26.7945 22.2753ZM12.1108 26.1076C12.1973 26.1181 12.2838 26.1443 12.3625 26.1914C12.6824 26.3773 12.7794 26.7935 12.5932 27.1128C12.4071 27.4322 11.9902 27.5526 11.6703 27.3641C11.3504 27.1783 11.2533 26.7621 11.4395 26.4427C11.5811 26.2019 11.8512 26.0736 12.1108 26.1076ZM22.662 26.1914C22.9216 26.16 23.176 26.2856 23.3123 26.5265C23.4932 26.8484 23.3831 27.2437 23.0606 27.427C22.7381 27.6102 22.3421 27.4976 22.1586 27.1757C21.9751 26.8537 22.0878 26.4584 22.4103 26.2752C22.4916 26.2307 22.5755 26.2019 22.662 26.1914ZM17.4388 27.5736C17.8112 27.5736 18.1101 27.872 18.1101 28.2437C18.1101 28.6154 17.8112 28.9138 17.4388 28.9138C17.0691 28.9138 16.7676 28.6154 16.7676 28.2437C16.7676 27.872 17.0691 27.5736 17.4388 27.5736Z"/>
<path d="M7.37003 3.44879C7.73975 3.44879 8.04129 3.74982 8.04129 4.11892V7.05075C10.6136 4.74717 13.941 3.44879 17.4388 3.44879C25.2107 3.44879 31.5352 9.76269 31.5352 17.5216C31.5352 25.2804 25.2107 31.5943 17.4388 31.5943C9.66698 31.5943 3.34251 25.2804 3.34251 17.5216C3.34251 15.2808 3.89315 13.0505 4.91576 11.0715L6.09046 11.6789C5.15175 13.4929 4.68502 15.4641 4.68502 17.5216C4.68502 24.5423 10.4064 30.2541 17.4388 30.2541C24.4713 30.2541 30.1927 24.5423 30.1927 17.5216C30.1927 10.5009 24.4713 4.78905 17.4388 4.78905C14.2294 4.78905 11.1773 6.00105 8.8384 8.13971H12.0688C12.4385 8.13971 12.7401 8.44075 12.7401 8.80984C12.7401 9.17894 12.4385 9.47998 12.0688 9.47998H6.69878V4.11892C6.69878 3.74982 7.00032 3.44879 7.37003 3.44879Z"/>
<path d="M17.4388 6.12932C17.8112 6.12932 18.1101 6.43035 18.1101 6.79945C18.1101 7.16854 17.8112 7.46958 17.4388 7.46958C17.0691 7.46958 16.7676 7.16854 16.7676 6.79945C16.7676 6.43035 17.0691 6.12932 17.4388 6.12932Z"/>
<path d="M22.9557 7.59523C23.0422 7.6057 23.1288 7.63188 23.2074 7.679C23.5273 7.86485 23.6244 8.28107 23.4382 8.60043C23.252 8.91979 22.8351 9.03759 22.5152 8.85173C22.1953 8.66587 22.0983 8.24966 22.2845 7.9303C22.4261 7.68947 22.6961 7.5612 22.9557 7.59523Z"/>
<path d="M26.6896 11.5323C26.9492 11.5008 27.2035 11.6265 27.3398 11.8673C27.5234 12.1893 27.4106 12.6055 27.0881 12.7888C26.7656 12.972 26.3697 12.8594 26.1861 12.5375C26.0026 12.2155 26.1153 11.7993 26.4378 11.616C26.5191 11.5689 26.603 11.5427 26.6896 11.5323Z"/>
<path d="M28.1789 16.8514C28.5513 16.8514 28.8502 17.1525 28.8502 17.5216C28.8502 17.8933 28.5513 18.1917 28.1789 18.1917C27.8066 18.1917 27.5077 17.8933 27.5077 17.5216C27.5077 17.1525 27.8066 16.8514 28.1789 16.8514Z"/>
<path d="M26.7945 22.2753C26.881 22.2858 26.9675 22.312 27.0462 22.3591C27.3661 22.5449 27.4867 22.9612 27.2979 23.2805C27.1117 23.5999 26.6948 23.6967 26.3749 23.5109C26.055 23.325 25.937 22.9088 26.1232 22.5894C26.2622 22.3486 26.5349 22.2413 26.7945 22.2753Z"/>
<path d="M22.662 26.1914C22.9216 26.16 23.176 26.2856 23.3123 26.5265C23.4932 26.8484 23.3831 27.2437 23.0606 27.427C22.7381 27.6102 22.3421 27.4976 22.1586 27.1757C21.9751 26.8537 22.0878 26.4584 22.4103 26.2752C22.4916 26.2307 22.5755 26.2019 22.662 26.1914Z"/>
<path d="M17.4388 27.5736C17.8112 27.5736 18.1101 27.872 18.1101 28.2437C18.1101 28.6154 17.8112 28.9138 17.4388 28.9138C17.0691 28.9138 16.7676 28.6154 16.7676 28.2437C16.7676 27.872 17.0691 27.5736 17.4388 27.5736Z"/>
<path d="M12.1108 26.1076C12.1973 26.1181 12.2838 26.1443 12.3625 26.1914C12.6824 26.3773 12.7794 26.7935 12.5932 27.1128C12.4071 27.4322 11.9902 27.5526 11.6703 27.3641C11.3504 27.1783 11.2533 26.7621 11.4395 26.4427C11.5811 26.2019 11.8512 26.0736 12.1108 26.1076Z"/>
<path d="M8.04129 22.1706C8.30088 22.1392 8.5526 22.2648 8.69157 22.5057C8.87511 22.8277 8.76236 23.2439 8.43985 23.4271C8.11733 23.6103 7.72139 23.4978 7.53785 23.1758C7.3543 22.8538 7.46705 22.4376 7.78957 22.2544C7.87085 22.2073 7.95476 22.1811 8.04129 22.1706Z"/>
<path d="M6.69878 16.8514C7.06849 16.8514 7.37003 17.1525 7.37003 17.5216C7.37003 17.8933 7.06849 18.1917 6.69878 18.1917C6.32907 18.1917 6.02753 17.8933 6.02753 17.5216C6.02753 17.1525 6.32907 16.8514 6.69878 16.8514Z"/>
</mask>
<path d="M7.37003 2.10852C6.26089 2.10852 5.35627 3.01163 5.35627 4.11892V8.16065L4.68502 8.83079C2.99115 11.3045 2 14.2992 2 17.5216C2 26.0343 8.91182 32.9346 17.4388 32.9346C25.9659 32.9346 32.8777 26.0343 32.8777 17.5216C32.8777 9.00879 25.9659 2.10852 17.4388 2.10852C14.4838 2.10852 11.7306 2.95404 9.3838 4.39116V4.11892C9.3838 3.01163 8.47918 2.10852 7.37003 2.10852ZM7.37003 3.44879C7.73975 3.44879 8.04129 3.74982 8.04129 4.11892V7.05075C10.6136 4.74717 13.941 3.44879 17.4388 3.44879C25.2107 3.44879 31.5352 9.76269 31.5352 17.5216C31.5352 25.2804 25.2107 31.5943 17.4388 31.5943C9.66698 31.5943 3.34251 25.2804 3.34251 17.5216C3.34251 15.2808 3.89315 13.0505 4.91576 11.0715L6.09046 11.6789C5.15175 13.4929 4.68502 15.4641 4.68502 17.5216C4.68502 24.5423 10.4064 30.2541 17.4388 30.2541C24.4713 30.2541 30.1927 24.5423 30.1927 17.5216C30.1927 10.5009 24.4713 4.78905 17.4388 4.78905C14.2294 4.78905 11.1773 6.00105 8.8384 8.13971H12.0688C12.4385 8.13971 12.7401 8.44075 12.7401 8.80984C12.7401 9.17894 12.4385 9.47998 12.0688 9.47998H6.69878V4.11892C6.69878 3.74982 7.00032 3.44879 7.37003 3.44879ZM17.4388 6.12932C17.8112 6.12932 18.1101 6.43035 18.1101 6.79945C18.1101 7.16854 17.8112 7.46958 17.4388 7.46958C17.0691 7.46958 16.7676 7.16854 16.7676 6.79945C16.7676 6.43035 17.0691 6.12932 17.4388 6.12932ZM22.9557 7.59523C23.0422 7.6057 23.1288 7.63188 23.2074 7.679C23.5273 7.86485 23.6244 8.28107 23.4382 8.60043C23.252 8.91979 22.8351 9.03759 22.5152 8.85173C22.1953 8.66587 22.0983 8.24966 22.2845 7.9303C22.4261 7.68947 22.6961 7.5612 22.9557 7.59523ZM26.6896 11.5323C26.9492 11.5008 27.2035 11.6265 27.3398 11.8673C27.5234 12.1893 27.4106 12.6055 27.0881 12.7888C26.7656 12.972 26.3697 12.8594 26.1861 12.5375C26.0026 12.2155 26.1153 11.7993 26.4378 11.616C26.5191 11.5689 26.603 11.5427 26.6896 11.5323ZM6.69878 16.8514C7.06849 16.8514 7.37003 17.1525 7.37003 17.5216C7.37003 17.8933 7.06849 18.1917 6.69878 18.1917C6.32907 18.1917 6.02753 17.8933 6.02753 17.5216C6.02753 17.1525 6.32907 16.8514 6.69878 16.8514ZM28.1789 16.8514C28.5513 16.8514 28.8502 17.1525 28.8502 17.5216C28.8502 17.8933 28.5513 18.1917 28.1789 18.1917C27.8066 18.1917 27.5077 17.8933 27.5077 17.5216C27.5077 17.1525 27.8066 16.8514 28.1789 16.8514ZM8.04129 22.1706C8.30088 22.1392 8.5526 22.2648 8.69157 22.5057C8.87511 22.8277 8.76236 23.2439 8.43985 23.4271C8.11733 23.6103 7.72139 23.4978 7.53785 23.1758C7.3543 22.8538 7.46705 22.4376 7.78957 22.2544C7.87085 22.2073 7.95476 22.1811 8.04129 22.1706ZM26.7945 22.2753C26.881 22.2858 26.9675 22.312 27.0462 22.3591C27.3661 22.5449 27.4867 22.9612 27.2979 23.2805C27.1117 23.5999 26.6948 23.6967 26.3749 23.5109C26.055 23.325 25.937 22.9088 26.1232 22.5894C26.2622 22.3486 26.5349 22.2413 26.7945 22.2753ZM12.1108 26.1076C12.1973 26.1181 12.2838 26.1443 12.3625 26.1914C12.6824 26.3773 12.7794 26.7935 12.5932 27.1128C12.4071 27.4322 11.9902 27.5526 11.6703 27.3641C11.3504 27.1783 11.2533 26.7621 11.4395 26.4427C11.5811 26.2019 11.8512 26.0736 12.1108 26.1076ZM22.662 26.1914C22.9216 26.16 23.176 26.2856 23.3123 26.5265C23.4932 26.8484 23.3831 27.2437 23.0606 27.427C22.7381 27.6102 22.3421 27.4976 22.1586 27.1757C21.9751 26.8537 22.0878 26.4584 22.4103 26.2752C22.4916 26.2307 22.5755 26.2019 22.662 26.1914ZM17.4388 27.5736C17.8112 27.5736 18.1101 27.872 18.1101 28.2437C18.1101 28.6154 17.8112 28.9138 17.4388 28.9138C17.0691 28.9138 16.7676 28.6154 16.7676 28.2437C16.7676 27.872 17.0691 27.5736 17.4388 27.5736Z" fill="white"/>
<path d="M7.37003 3.44879C7.73975 3.44879 8.04129 3.74982 8.04129 4.11892V7.05075C10.6136 4.74717 13.941 3.44879 17.4388 3.44879C25.2107 3.44879 31.5352 9.76269 31.5352 17.5216C31.5352 25.2804 25.2107 31.5943 17.4388 31.5943C9.66698 31.5943 3.34251 25.2804 3.34251 17.5216C3.34251 15.2808 3.89315 13.0505 4.91576 11.0715L6.09046 11.6789C5.15175 13.4929 4.68502 15.4641 4.68502 17.5216C4.68502 24.5423 10.4064 30.2541 17.4388 30.2541C24.4713 30.2541 30.1927 24.5423 30.1927 17.5216C30.1927 10.5009 24.4713 4.78905 17.4388 4.78905C14.2294 4.78905 11.1773 6.00105 8.8384 8.13971H12.0688C12.4385 8.13971 12.7401 8.44075 12.7401 8.80984C12.7401 9.17894 12.4385 9.47998 12.0688 9.47998H6.69878V4.11892C6.69878 3.74982 7.00032 3.44879 7.37003 3.44879Z" fill="black"/>
<path d="M17.4388 6.12932C17.8112 6.12932 18.1101 6.43035 18.1101 6.79945C18.1101 7.16854 17.8112 7.46958 17.4388 7.46958C17.0691 7.46958 16.7676 7.16854 16.7676 6.79945C16.7676 6.43035 17.0691 6.12932 17.4388 6.12932Z" fill="black"/>
<path d="M22.9557 7.59523C23.0422 7.6057 23.1288 7.63188 23.2074 7.679C23.5273 7.86485 23.6244 8.28107 23.4382 8.60043C23.252 8.91979 22.8351 9.03759 22.5152 8.85173C22.1953 8.66587 22.0983 8.24966 22.2845 7.9303C22.4261 7.68947 22.6961 7.5612 22.9557 7.59523Z" fill="black"/>
<path d="M26.6896 11.5323C26.9492 11.5008 27.2035 11.6265 27.3398 11.8673C27.5234 12.1893 27.4106 12.6055 27.0881 12.7888C26.7656 12.972 26.3697 12.8594 26.1861 12.5375C26.0026 12.2155 26.1153 11.7993 26.4378 11.616C26.5191 11.5689 26.603 11.5427 26.6896 11.5323Z" fill="black"/>
<path d="M28.1789 16.8514C28.5513 16.8514 28.8502 17.1525 28.8502 17.5216C28.8502 17.8933 28.5513 18.1917 28.1789 18.1917C27.8066 18.1917 27.5077 17.8933 27.5077 17.5216C27.5077 17.1525 27.8066 16.8514 28.1789 16.8514Z" fill="black"/>
<path d="M26.7945 22.2753C26.881 22.2858 26.9675 22.312 27.0462 22.3591C27.3661 22.5449 27.4867 22.9612 27.2979 23.2805C27.1117 23.5999 26.6948 23.6967 26.3749 23.5109C26.055 23.325 25.937 22.9088 26.1232 22.5894C26.2622 22.3486 26.5349 22.2413 26.7945 22.2753Z" fill="black"/>
<path d="M22.662 26.1914C22.9216 26.16 23.176 26.2856 23.3123 26.5265C23.4932 26.8484 23.3831 27.2437 23.0606 27.427C22.7381 27.6102 22.3421 27.4976 22.1586 27.1757C21.9751 26.8537 22.0878 26.4584 22.4103 26.2752C22.4916 26.2307 22.5755 26.2019 22.662 26.1914Z" fill="black"/>
<path d="M17.4388 27.5736C17.8112 27.5736 18.1101 27.872 18.1101 28.2437C18.1101 28.6154 17.8112 28.9138 17.4388 28.9138C17.0691 28.9138 16.7676 28.6154 16.7676 28.2437C16.7676 27.872 17.0691 27.5736 17.4388 27.5736Z" fill="black"/>
<path d="M12.1108 26.1076C12.1973 26.1181 12.2838 26.1443 12.3625 26.1914C12.6824 26.3773 12.7794 26.7935 12.5932 27.1128C12.4071 27.4322 11.9902 27.5526 11.6703 27.3641C11.3504 27.1783 11.2533 26.7621 11.4395 26.4427C11.5811 26.2019 11.8512 26.0736 12.1108 26.1076Z" fill="black"/>
<path d="M8.04129 22.1706C8.30088 22.1392 8.5526 22.2648 8.69157 22.5057C8.87511 22.8277 8.76236 23.2439 8.43985 23.4271C8.11733 23.6103 7.72139 23.4978 7.53785 23.1758C7.3543 22.8538 7.46705 22.4376 7.78957 22.2544C7.87085 22.2073 7.95476 22.1811 8.04129 22.1706Z" fill="black"/>
<path d="M6.69878 16.8514C7.06849 16.8514 7.37003 17.1525 7.37003 17.5216C7.37003 17.8933 7.06849 18.1917 6.69878 18.1917C6.32907 18.1917 6.02753 17.8933 6.02753 17.5216C6.02753 17.1525 6.32907 16.8514 6.69878 16.8514Z" fill="black"/>
<path d="M8.04129 7.05075H7.09882V9.15993L8.67004 7.75283L8.04129 7.05075ZM4.91576 11.0715L5.34859 10.2343L4.51122 9.80142L4.07847 10.6389L4.91576 11.0715ZM6.09046 11.6789L6.9275 12.112L7.3608 11.2746L6.52328 10.8416L6.09046 11.6789ZM8.8384 8.13971L8.20241 7.44418L6.41105 9.08218H8.8384V8.13971ZM6.69878 9.47998H5.75631V10.4224H6.69878V9.47998ZM22.9557 7.59523L22.8332 8.52975L22.8425 8.53087L22.9557 7.59523ZM23.2074 7.679L22.7231 8.48759L22.734 8.49391L23.2074 7.679ZM23.4382 8.60043L22.624 8.12578V8.12578L23.4382 8.60043ZM22.5152 8.85173L22.0417 9.66664V9.66664L22.5152 8.85173ZM22.2845 7.9303L21.472 7.45262L21.4702 7.45565L22.2845 7.9303ZM26.6896 11.5323L26.5763 10.5966L26.6896 11.5323ZM27.3398 11.8673L26.5197 12.3317L26.5211 12.3341L27.3398 11.8673ZM27.0881 12.7888L26.6226 11.9693L26.6226 11.9693L27.0881 12.7888ZM26.1861 12.5375L25.3674 13.0042L25.3674 13.0042L26.1861 12.5375ZM26.4378 11.616L26.9034 12.4355L26.9105 12.4314L26.4378 11.616ZM8.04129 22.1706L7.92807 21.235H7.92807L8.04129 22.1706ZM8.69157 22.5057L9.51035 22.0389L9.50787 22.0346L8.69157 22.5057ZM8.43985 23.4271L7.97427 22.6077H7.97427L8.43985 23.4271ZM7.53785 23.1758L6.71907 23.6426L6.71907 23.6426L7.53785 23.1758ZM7.78957 22.2544L8.25516 23.0739L8.26222 23.0698L7.78957 22.2544ZM26.7945 22.2753L26.6719 23.2098L26.6812 23.211L26.7945 22.2753ZM27.0462 22.3591L26.5618 23.1677L26.5727 23.174L27.0462 22.3591ZM27.2979 23.2805L26.4866 22.8009L26.4837 22.8059L27.2979 23.2805ZM26.3749 23.5109L25.9015 24.3258V24.3258L26.3749 23.5109ZM26.1232 22.5894L26.9374 23.0641L26.9395 23.0605L26.1232 22.5894ZM12.1108 26.1076L11.9883 27.0422L11.9975 27.0433L12.1108 26.1076ZM12.3625 26.1914L11.8781 27L11.889 27.0063L12.3625 26.1914ZM12.5932 27.1128L11.779 26.6382L12.5932 27.1128ZM11.6703 27.3641L12.1487 26.5521L12.1437 26.5492L11.6703 27.3641ZM11.4395 26.4427L10.6271 25.965L10.6253 25.9681L11.4395 26.4427ZM22.662 26.1914L22.5488 25.2558L22.662 26.1914ZM23.3123 26.5265L24.134 26.0648L24.1325 26.0621L23.3123 26.5265ZM23.0606 27.427L22.595 26.6075H22.595L23.0606 27.427ZM22.1586 27.1757L21.3398 27.6424L21.3398 27.6424L22.1586 27.1757ZM22.4103 26.2752L21.9577 25.4485L21.9512 25.4521L21.9447 25.4557L22.4103 26.2752ZM7.37003 4.39126C7.22072 4.39126 7.09882 4.27182 7.09882 4.11892H8.98376C8.98376 3.22782 8.25877 2.50632 7.37003 2.50632V4.39126ZM7.09882 4.11892V7.05075H8.98376V4.11892H7.09882ZM8.67004 7.75283C11.0719 5.60187 14.1763 4.39126 17.4388 4.39126V2.50632C13.7057 2.50632 10.1552 3.89247 7.41254 6.34866L8.67004 7.75283ZM17.4388 4.39126C24.6917 4.39126 30.5927 10.2847 30.5927 17.5216H32.4777C32.4777 9.24069 25.7297 2.50632 17.4388 2.50632V4.39126ZM30.5927 17.5216C30.5927 24.7584 24.6917 30.6519 17.4388 30.6519V32.5368C25.7297 32.5368 32.4777 25.8024 32.4777 17.5216H30.5927ZM17.4388 30.6519C10.186 30.6519 4.28498 24.7584 4.28498 17.5216H2.40004C2.40004 25.8024 9.14796 32.5368 17.4388 32.5368V30.6519ZM4.28498 17.5216C4.28498 15.4333 4.79866 13.3512 5.75305 11.5042L4.07847 10.6389C2.98763 12.7499 2.40004 15.1283 2.40004 17.5216H4.28498ZM4.48293 11.9087L5.65763 12.5161L6.52328 10.8416L5.34859 10.2343L4.48293 11.9087ZM5.25341 11.2457C4.24331 13.1978 3.74255 15.318 3.74255 17.5216H5.62749C5.62749 15.6101 6.06019 13.7881 6.9275 12.112L5.25341 11.2457ZM3.74255 17.5216C3.74255 25.0643 9.88739 31.1966 17.4388 31.1966V29.3116C10.9254 29.3116 5.62749 24.0203 5.62749 17.5216H3.74255ZM17.4388 31.1966C24.9903 31.1966 31.1351 25.0643 31.1351 17.5216H29.2502C29.2502 24.0203 23.9523 29.3116 17.4388 29.3116V31.1966ZM31.1351 17.5216C31.1351 9.97889 24.9903 3.84658 17.4388 3.84658V5.73152C23.9523 5.73152 29.2502 11.0229 29.2502 17.5216H31.1351ZM17.4388 3.84658C13.9902 3.84658 10.7122 5.14927 8.20241 7.44418L9.47439 8.83525C11.6424 6.85282 14.4686 5.73152 17.4388 5.73152V3.84658ZM8.8384 9.08218H12.0688V7.19724H8.8384V9.08218ZM12.0688 9.08218C11.9195 9.08218 11.7976 8.96275 11.7976 8.80984H13.6825C13.6825 7.91875 12.9576 7.19724 12.0688 7.19724V9.08218ZM11.7976 8.80984C11.7976 8.65694 11.9195 8.53751 12.0688 8.53751V10.4224C12.9576 10.4224 13.6825 9.70094 13.6825 8.80984H11.7976ZM12.0688 8.53751H6.69878V10.4224H12.0688V8.53751ZM7.64125 9.47998V4.11892H5.75631V9.47998H7.64125ZM7.64125 4.11892C7.64125 4.27182 7.51934 4.39126 7.37003 4.39126V2.50632C6.48129 2.50632 5.75631 3.22782 5.75631 4.11892H7.64125ZM17.4388 7.07179C17.2898 7.07179 17.1676 6.94995 17.1676 6.79945H19.0526C19.0526 5.91076 18.3326 5.18685 17.4388 5.18685V7.07179ZM17.1676 6.79945C17.1676 6.64895 17.2898 6.52711 17.4388 6.52711V8.41205C18.3326 8.41205 19.0526 7.68814 19.0526 6.79945H17.1676ZM17.4388 6.52711C17.5882 6.52711 17.7101 6.64654 17.7101 6.79945H15.8251C15.8251 7.69054 16.5501 8.41205 17.4388 8.41205V6.52711ZM17.7101 6.79945C17.7101 6.95235 17.5882 7.07179 17.4388 7.07179V5.18685C16.5501 5.18685 15.8251 5.90835 15.8251 6.79945H17.7101ZM22.8425 8.53087C22.8187 8.52799 22.7746 8.51837 22.7231 8.48752L23.6917 6.87048C23.4829 6.74539 23.2658 6.68341 23.0689 6.65959L22.8425 8.53087ZM22.734 8.49391C22.5758 8.40203 22.564 8.22859 22.624 8.12578L24.2524 9.07507C24.6847 8.33355 24.4788 7.32767 23.6809 6.86408L22.734 8.49391ZM22.624 8.12578C22.6611 8.06199 22.7188 8.02283 22.7765 8.00691C22.8356 7.99065 22.9145 7.99373 22.9887 8.03681L22.0417 9.66664C22.8272 10.123 23.8138 9.82753 24.2524 9.07507L22.624 8.12578ZM22.9887 8.03682C23.1468 8.12869 23.1586 8.30214 23.0987 8.40494L21.4702 7.45565C21.038 8.19718 21.2438 9.20305 22.0417 9.66664L22.9887 8.03682ZM23.0969 8.40797C23.049 8.48943 22.9531 8.54542 22.8332 8.5297L23.0782 6.66076C22.4392 6.57698 21.8031 6.8895 21.472 7.45262L23.0969 8.40797ZM26.8028 12.4679C26.6795 12.4828 26.5682 12.4174 26.5197 12.3317L28.16 11.403C27.8388 10.8356 27.2188 10.5189 26.5763 10.5966L26.8028 12.4679ZM26.5211 12.3341C26.4483 12.2065 26.489 12.0452 26.6226 11.9693L27.5537 13.6082C28.3323 13.1658 28.5985 12.1721 28.1586 11.4006L26.5211 12.3341ZM26.6226 11.9693C26.6833 11.9348 26.7633 11.9238 26.8394 11.9451C26.9146 11.9662 26.9732 12.0151 27.0049 12.0707L25.3674 13.0042C25.8037 13.7697 26.7709 14.053 27.5537 13.6082L26.6226 11.9693ZM27.0049 12.0707C27.0776 12.1983 27.037 12.3596 26.9034 12.4355L25.9723 10.7966C25.1937 11.239 24.9275 12.2327 25.3674 13.0042L27.0049 12.0707ZM26.9105 12.4314C26.8943 12.4408 26.8755 12.4494 26.8551 12.456C26.8349 12.4627 26.8169 12.4662 26.8028 12.4679L26.5763 10.5966C26.3713 10.6214 26.1638 10.6855 25.9652 10.8006L26.9105 12.4314ZM6.69878 17.7939C6.54947 17.7939 6.42756 17.6745 6.42756 17.5216H8.3125C8.3125 16.6305 7.58752 15.909 6.69878 15.909V17.7939ZM6.42756 17.5216C6.42756 17.3689 6.55187 17.2492 6.69878 17.2492V19.1342C7.58511 19.1342 8.3125 18.4177 8.3125 17.5216H6.42756ZM6.69878 17.2492C6.84569 17.2492 6.97 17.3689 6.97 17.5216H5.08506C5.08506 18.4177 5.81244 19.1342 6.69878 19.1342V17.2492ZM6.97 17.5216C6.97 17.6745 6.84809 17.7939 6.69878 17.7939V15.909C5.81004 15.909 5.08506 16.6305 5.08506 17.5216H6.97ZM28.1789 17.7939C28.0298 17.7939 27.9077 17.6721 27.9077 17.5216H29.7926C29.7926 16.6329 29.0727 15.909 28.1789 15.909V17.7939ZM27.9077 17.5216C27.9077 17.3713 28.0322 17.2492 28.1789 17.2492V19.1342C29.0703 19.1342 29.7926 18.4153 29.7926 17.5216H27.9077ZM28.1789 17.2492C28.3256 17.2492 28.4501 17.3713 28.4501 17.5216H26.5652C26.5652 18.4153 27.2876 19.1342 28.1789 19.1342V17.2492ZM28.4501 17.5216C28.4501 17.6721 28.328 17.7939 28.1789 17.7939V15.909C27.2852 15.909 26.5652 16.6329 26.5652 17.5216H28.4501ZM8.15451 23.1063C8.09695 23.1132 8.0362 23.1026 7.98295 23.0754C7.92964 23.0481 7.89443 23.01 7.87526 22.9767L9.50787 22.0346C9.18675 21.4781 8.57557 21.1566 7.92807 21.235L8.15451 23.1063ZM7.87279 22.9724C7.80005 22.8448 7.84069 22.6836 7.97427 22.6077L8.90542 24.2466C9.68404 23.8042 9.95017 22.8105 9.51034 22.0389L7.87279 22.9724ZM7.97427 22.6077C8.03507 22.5731 8.11506 22.5621 8.19114 22.5834C8.26634 22.6045 8.3249 22.6534 8.35662 22.7091L6.71907 23.6426C7.15544 24.408 8.1226 24.6913 8.90542 24.2466L7.97427 22.6077ZM8.35662 22.7091C8.42936 22.8367 8.38873 22.9979 8.25514 23.0738L7.324 21.4349C6.54537 21.8773 6.27924 22.871 6.71907 23.6426L8.35662 22.7091ZM8.26222 23.0698C8.24602 23.0791 8.22724 23.0877 8.20685 23.0944C8.18663 23.101 8.16862 23.1045 8.15451 23.1063L7.92807 21.235C7.72299 21.2598 7.51553 21.3239 7.31692 21.439L8.26222 23.0698ZM26.6812 23.211C26.6574 23.2081 26.6134 23.1985 26.5619 23.1676L27.5305 21.5506C27.3217 21.4255 27.1046 21.3635 26.9077 21.3397L26.6812 23.211ZM26.5727 23.174C26.511 23.1381 26.4714 23.0819 26.4548 23.0225C26.4377 22.961 26.441 22.878 26.4866 22.8009L28.1092 23.7601C28.5789 22.9656 28.2668 21.9783 27.5196 21.5442L26.5727 23.174ZM26.4837 22.8059C26.576 22.6474 26.7478 22.6376 26.8484 22.696L25.9015 24.3258C26.6418 24.7559 27.6474 24.5523 28.1121 23.7552L26.4837 22.8059ZM26.8484 22.696C26.9615 22.7617 27.0237 22.916 26.9374 23.0641L25.309 22.1148C24.8503 22.9016 25.1485 23.8883 25.9015 24.3258L26.8484 22.696ZM26.9395 23.0605C26.9028 23.1241 26.8485 23.1673 26.7978 23.1899C26.7511 23.2108 26.7081 23.2145 26.6719 23.2098L26.917 21.3408C26.339 21.2651 25.6646 21.4984 25.3069 22.1184L26.9395 23.0605ZM11.9975 27.0433C11.9737 27.0404 11.9297 27.0308 11.8782 26.9999L12.8468 25.3829C12.638 25.2578 12.4209 25.1958 12.224 25.172L11.9975 27.0433ZM11.889 27.0063C11.7309 26.9144 11.7191 26.741 11.779 26.6382L13.4075 27.5875C13.8397 26.846 13.6339 25.8401 12.8359 25.3765L11.889 27.0063ZM11.779 26.6382C11.8153 26.576 11.8716 26.5369 11.9299 26.5208C11.9903 26.504 12.0722 26.5071 12.1487 26.5521L11.1918 28.1761C11.985 28.6435 12.9721 28.3342 13.4075 27.5875L11.779 26.6382ZM12.1437 26.5492C12.3019 26.6411 12.3137 26.8145 12.2537 26.9174L10.6253 25.9681C10.193 26.7096 10.3989 27.7155 11.1968 28.1791L12.1437 26.5492ZM12.252 26.9204C12.2041 27.0018 12.1081 27.0578 11.9883 27.0421L12.2333 25.1732C11.5942 25.0894 10.9581 25.4019 10.6271 25.965L12.252 26.9204ZM22.7753 27.1271C22.652 27.142 22.5407 27.0765 22.4922 26.9908L24.1325 26.0621C23.8112 25.4947 23.1913 25.178 22.5488 25.2558L22.7753 27.1271ZM22.4907 26.9882C22.4575 26.9291 22.4464 26.851 22.4675 26.7753C22.4886 26.6996 22.5382 26.6398 22.595 26.6075L23.5262 28.2464C24.2979 27.808 24.5701 26.8409 24.134 26.0648L22.4907 26.9882ZM22.595 26.6075C22.6558 26.573 22.7358 26.562 22.8119 26.5833C22.8871 26.6044 22.9457 26.6533 22.9774 26.7089L21.3398 27.6424C21.7762 28.4079 22.7434 28.6912 23.5262 28.2464L22.595 26.6075ZM22.9774 26.7089C23.0124 26.7703 23.0237 26.8514 23.002 26.9286C22.9805 27.0048 22.9311 27.0633 22.8759 27.0946L21.9447 25.4557C21.1788 25.8909 20.8928 26.8583 21.3398 27.6424L22.9774 26.7089ZM22.8629 27.1019C22.854 27.1067 22.8236 27.1212 22.7753 27.1271L22.5488 25.2558C22.3274 25.2826 22.1292 25.3546 21.9577 25.4485L22.8629 27.1019ZM17.4388 28.516C17.2922 28.516 17.1676 28.394 17.1676 28.2437H19.0526C19.0526 27.35 18.3302 26.6311 17.4388 26.6311V28.516ZM17.1676 28.2437C17.1676 28.0934 17.2922 27.9713 17.4388 27.9713V29.8563C18.3302 29.8563 19.0526 29.1374 19.0526 28.2437H17.1676ZM17.4388 27.9713C17.5858 27.9713 17.7101 28.091 17.7101 28.2437H15.8251C15.8251 29.1398 16.5525 29.8563 17.4388 29.8563V27.9713ZM17.7101 28.2437C17.7101 28.3964 17.5858 28.516 17.4388 28.516V26.6311C16.5525 26.6311 15.8251 27.3476 15.8251 28.2437H17.7101ZM5.35627 8.16065L6.68801 9.49462L7.24121 8.94235V8.16065H5.35627ZM4.68502 8.83079L3.35328 7.49682L3.22898 7.62091L3.12975 7.76583L4.68502 8.83079ZM9.3838 4.39116H7.49886V7.75576L10.3682 5.99863L9.3838 4.39116ZM7.37003 0.223581C5.22284 0.223581 3.47133 1.96763 3.47133 4.11892H7.24121C7.24121 4.08909 7.25147 4.0599 7.27896 4.03245C7.30651 4.00495 7.3372 3.99346 7.37003 3.99346V0.223581ZM3.47133 4.11892V8.16065H7.24121V4.11892H3.47133ZM4.02453 6.82669L3.35328 7.49682L6.01676 10.1648L6.68801 9.49462L4.02453 6.82669ZM3.12975 7.76583C1.22799 10.5432 0.11506 13.9071 0.11506 17.5216H3.88494C3.88494 14.6913 4.75431 12.0659 6.24029 9.89574L3.12975 7.76583ZM0.11506 17.5216C0.11506 27.0783 7.87377 34.8196 17.4388 34.8196V31.0497C9.94987 31.0497 3.88494 24.9904 3.88494 17.5216H0.11506ZM17.4388 34.8196C27.0039 34.8196 34.7626 27.0783 34.7626 17.5216H30.9928C30.9928 24.9904 24.9278 31.0497 17.4388 31.0497V34.8196ZM34.7626 17.5216C34.7626 7.9648 27.0039 0.223581 17.4388 0.223581V3.99346C24.9278 3.99346 30.9928 10.0528 30.9928 17.5216H34.7626ZM17.4388 0.223581C14.1183 0.223581 11.0267 1.17477 8.39941 2.78368L10.3682 5.99863C12.4344 4.73331 14.8492 3.99346 17.4388 3.99346V0.223581ZM11.2687 4.39116V4.11892H7.49886V4.39116H11.2687ZM11.2687 4.11892C11.2687 1.96763 9.51723 0.223581 7.37003 0.223581V3.99346C7.40287 3.99346 7.43356 4.00495 7.46111 4.03245C7.4886 4.0599 7.49886 4.08909 7.49886 4.11892H11.2687Z" fill="black" mask="url(#path-2-outside-1_54_5908)"/>
<path d="M17.7236 9.75952V17.1806C17.7236 17.5238 17.8796 17.8483 18.1476 18.0627L21.9901 21.1367" stroke="black" stroke-width="1.88494" stroke-linecap="round"/>
</svg>
