<svg width="34" height="34" viewBox="0 0 34 34" fill="none" xmlns="http://www.w3.org/2000/svg">
<ellipse cx="17.6748" cy="17.6748" rx="16" ry="16" fill="black"/>
<path d="M6.37003 1.10852C5.26089 1.10852 4.35627 2.01163 4.35627 3.11892V7.16065L3.68502 7.83079C1.99115 10.3045 1 13.2992 1 16.5216C1 25.0343 7.91182 31.9346 16.4388 31.9346C24.9659 31.9346 31.8777 25.0343 31.8777 16.5216C31.8777 8.00879 24.9659 1.10852 16.4388 1.10852C13.4838 1.10852 10.7306 1.95404 8.3838 3.39116V3.11892C8.3838 2.01163 7.47918 1.10852 6.37003 1.10852ZM6.37003 2.44879C6.73975 2.44879 7.04129 2.74982 7.04129 3.11892V6.05075C9.61356 3.74717 12.941 2.44879 16.4388 2.44879C24.2107 2.44879 30.5352 8.76269 30.5352 16.5216C30.5352 24.2804 24.2107 30.5943 16.4388 30.5943C8.66698 30.5943 2.34251 24.2804 2.34251 16.5216C2.34251 14.2808 2.89315 12.0505 3.91576 10.0715L5.09046 10.6789C4.15175 12.4929 3.68502 14.4641 3.68502 16.5216C3.68502 23.5423 9.40641 29.2541 16.4388 29.2541C23.4713 29.2541 29.1927 23.5423 29.1927 16.5216C29.1927 9.50088 23.4713 3.78905 16.4388 3.78905C13.2294 3.78905 10.1773 5.00105 7.8384 7.13971H11.0688C11.4385 7.13971 11.7401 7.44075 11.7401 7.80984C11.7401 8.17894 11.4385 8.47998 11.0688 8.47998H5.69878V3.11892C5.69878 2.74982 6.00032 2.44879 6.37003 2.44879ZM16.4388 5.12932C16.8112 5.12932 17.1101 5.43035 17.1101 5.79945C17.1101 6.16854 16.8112 6.46958 16.4388 6.46958C16.0691 6.46958 15.7676 6.16854 15.7676 5.79945C15.7676 5.43035 16.0691 5.12932 16.4388 5.12932ZM21.9557 6.59523C22.0422 6.6057 22.1288 6.63188 22.2074 6.679C22.5273 6.86485 22.6244 7.28107 22.4382 7.60043C22.252 7.91979 21.8351 8.03759 21.5152 7.85173C21.1953 7.66587 21.0983 7.24966 21.2845 6.9303C21.4261 6.68947 21.6961 6.5612 21.9557 6.59523ZM25.6896 10.5323C25.9492 10.5008 26.2035 10.6265 26.3398 10.8673C26.5234 11.1893 26.4106 11.6055 26.0881 11.7888C25.7656 11.972 25.3697 11.8594 25.1861 11.5375C25.0026 11.2155 25.1153 10.7993 25.4378 10.616C25.5191 10.5689 25.603 10.5427 25.6896 10.5323ZM5.69878 15.8514C6.06849 15.8514 6.37003 16.1525 6.37003 16.5216C6.37003 16.8933 6.06849 17.1917 5.69878 17.1917C5.32907 17.1917 5.02753 16.8933 5.02753 16.5216C5.02753 16.1525 5.32907 15.8514 5.69878 15.8514ZM27.1789 15.8514C27.5512 15.8514 27.8502 16.1525 27.8502 16.5216C27.8502 16.8933 27.5512 17.1917 27.1789 17.1917C26.8066 17.1917 26.5077 16.8933 26.5077 16.5216C26.5077 16.1525 26.8066 15.8514 27.1789 15.8514ZM7.04129 21.1706C7.30088 21.1392 7.5526 21.2648 7.69157 21.5057C7.87511 21.8277 7.76236 22.2439 7.43985 22.4271C7.11733 22.6104 6.72139 22.4978 6.53785 22.1758C6.3543 21.8538 6.46705 21.4376 6.78957 21.2544C6.87085 21.2073 6.95476 21.1811 7.04129 21.1706ZM25.7945 21.2753C25.881 21.2858 25.9675 21.312 26.0462 21.3591C26.3661 21.5449 26.4867 21.9612 26.2979 22.2805C26.1117 22.5999 25.6948 22.6967 25.3749 22.5109C25.055 22.325 24.937 21.9088 25.1232 21.5894C25.2622 21.3486 25.5349 21.2413 25.7945 21.2753ZM11.1108 25.1076C11.1973 25.1181 11.2838 25.1443 11.3625 25.1914C11.6824 25.3773 11.7794 25.7935 11.5932 26.1128C11.4071 26.4322 10.9902 26.5526 10.6703 26.3641C10.3504 26.1783 10.2533 25.7621 10.4395 25.4427C10.5811 25.2019 10.8512 25.0736 11.1108 25.1076ZM21.662 25.1914C21.9216 25.16 22.176 25.2856 22.3123 25.5265C22.4932 25.8484 22.3831 26.2437 22.0606 26.427C21.7381 26.6102 21.3422 26.4976 21.1586 26.1757C20.9751 25.8537 21.0878 25.4584 21.4103 25.2752C21.4916 25.2307 21.5755 25.2019 21.662 25.1914ZM16.4388 26.5736C16.8112 26.5736 17.1101 26.872 17.1101 27.2437C17.1101 27.6154 16.8112 27.9138 16.4388 27.9138C16.0691 27.9138 15.7676 27.6154 15.7676 27.2437C15.7676 26.872 16.0691 26.5736 16.4388 26.5736Z" fill="#A460FF"/>
<path d="M27.1789 15.8514C27.5512 15.8514 27.8502 16.1525 27.8502 16.5216C27.8502 16.8933 27.5512 17.1917 27.1789 17.1917C26.8066 17.1917 26.5077 16.8933 26.5077 16.5216C26.5077 16.1525 26.8066 15.8514 27.1789 15.8514Z" fill="white"/>
<path d="M25.7945 21.2753C25.881 21.2858 25.9675 21.312 26.0462 21.3591C26.3661 21.5449 26.4867 21.9612 26.2979 22.2805C26.1117 22.5999 25.6948 22.6967 25.3749 22.5109C25.055 22.325 24.937 21.9088 25.1232 21.5894C25.2622 21.3486 25.5349 21.2413 25.7945 21.2753Z" fill="white"/>
<path d="M21.662 25.1914C21.9216 25.16 22.176 25.2856 22.3123 25.5265C22.4932 25.8484 22.3831 26.2437 22.0606 26.427C21.7381 26.6102 21.3422 26.4976 21.1586 26.1757C20.9751 25.8537 21.0878 25.4584 21.4103 25.2752C21.4916 25.2307 21.5755 25.2019 21.662 25.1914Z" fill="white"/>
<path d="M16.4388 26.5736C16.8112 26.5736 17.1101 26.872 17.1101 27.2437C17.1101 27.6154 16.8112 27.9138 16.4388 27.9138C16.0691 27.9138 15.7676 27.6154 15.7676 27.2437C15.7676 26.872 16.0691 26.5736 16.4388 26.5736Z" fill="white"/>
<path d="M11.1108 25.1076C11.1973 25.1181 11.2838 25.1443 11.3625 25.1914C11.6824 25.3773 11.7794 25.7935 11.5932 26.1128C11.4071 26.4322 10.9902 26.5526 10.6703 26.3641C10.3504 26.1783 10.2533 25.7621 10.4395 25.4427C10.5811 25.2019 10.8512 25.0736 11.1108 25.1076Z" fill="white"/>
<path d="M7.04129 21.1706C7.30088 21.1392 7.5526 21.2648 7.69157 21.5057C7.87511 21.8277 7.76236 22.2439 7.43985 22.4271C7.11733 22.6104 6.72139 22.4978 6.53785 22.1758C6.3543 21.8538 6.46705 21.4376 6.78957 21.2544C6.87085 21.2073 6.95476 21.1811 7.04129 21.1706Z" fill="white"/>
<path d="M5.69878 15.8514C6.06849 15.8514 6.37003 16.1525 6.37003 16.5216C6.37003 16.8933 6.06849 17.1917 5.69878 17.1917C5.32907 17.1917 5.02753 16.8933 5.02753 16.5216C5.02753 16.1525 5.32907 15.8514 5.69878 15.8514Z" fill="white"/>
<path d="M6.37003 2.44879C6.73975 2.44879 7.04129 2.74982 7.04129 3.11892V6.05075C9.61356 3.74717 12.941 2.44879 16.4388 2.44879C24.2107 2.44879 30.5352 8.76269 30.5352 16.5216C30.5352 24.2804 24.2107 30.5943 16.4388 30.5943C8.66698 30.5943 2.34251 24.2804 2.34251 16.5216C2.34251 14.2808 2.89315 12.0505 3.91576 10.0715L5.09046 10.6789C4.15175 12.4929 3.68502 14.4641 3.68502 16.5216C3.68502 23.5423 9.40641 29.2541 16.4388 29.2541C23.4713 29.2541 29.1927 23.5423 29.1927 16.5216C29.1927 9.50088 23.4713 3.78905 16.4388 3.78905C13.2294 3.78905 10.1773 5.00105 7.8384 7.13971H11.0688C11.4385 7.13971 11.7401 7.44075 11.7401 7.80984C11.7401 8.17894 11.4385 8.47998 11.0688 8.47998H5.69878V3.11892C5.69878 2.74982 6.00032 2.44879 6.37003 2.44879Z" fill="white"/>
<path d="M16.4388 5.12932C16.8112 5.12932 17.1101 5.43035 17.1101 5.79945C17.1101 6.16854 16.8112 6.46958 16.4388 6.46958C16.0691 6.46958 15.7676 6.16854 15.7676 5.79945C15.7676 5.43035 16.0691 5.12932 16.4388 5.12932Z" fill="white"/>
<path d="M25.6896 10.5323C25.9492 10.5008 26.2035 10.6265 26.3398 10.8673C26.5234 11.1893 26.4106 11.6055 26.0881 11.7888C25.7656 11.972 25.3697 11.8594 25.1861 11.5375C25.0026 11.2155 25.1153 10.7993 25.4378 10.616C25.5191 10.5689 25.603 10.5427 25.6896 10.5323Z" fill="white"/>
<path d="M21.9557 6.59523C22.0422 6.6057 22.1288 6.63188 22.2074 6.679C22.5273 6.86485 22.6244 7.28107 22.4382 7.60043C22.252 7.91979 21.8351 8.03759 21.5152 7.85173C21.1953 7.66587 21.0983 7.24966 21.2845 6.9303C21.4261 6.68947 21.6961 6.5612 21.9557 6.59523Z" fill="white"/>
<path d="M3.33176 7.47694L3.29879 7.50985L3.27247 7.5483C1.52345 10.1026 0.5 13.1952 0.5 16.5216C0.5 25.3113 7.63647 32.4346 16.4388 32.4346C25.2412 32.4346 32.3777 25.3113 32.3777 16.5216C32.3777 7.73186 25.2412 0.608521 16.4388 0.608521C13.6756 0.608521 11.0837 1.32459 8.82104 2.5605C8.56584 1.44414 7.56263 0.608521 6.37003 0.608521C4.98554 0.608521 3.85627 1.7347 3.85627 3.11892V6.9533L3.33176 7.47694Z" stroke="black"/>
<path d="M16.7236 8.75952V16.1806C16.7236 16.5238 16.8796 16.8483 17.1476 17.0627L20.9901 20.1367" stroke="white" stroke-width="1.88494" stroke-linecap="round"/>
</svg>
