<svg width="33" height="33" viewBox="0 0 33 33" fill="none" xmlns="http://www.w3.org/2000/svg">
<circle cx="17.4708" cy="17.4706" r="15.5294" fill="black"/>
<circle cx="15.5294" cy="15.5294" r="15.0441" fill="#A460FF" stroke="black" stroke-width="0.970588"/>
<path fill-rule="evenodd" clip-rule="evenodd" d="M15.5296 5.82352C14.4575 5.82352 13.5884 6.69261 13.5884 7.76469V13.5882L7.76491 13.5882C6.69282 13.5882 5.82373 14.4573 5.82373 15.5294C5.82373 16.6015 6.69283 17.4706 7.76491 17.4706H13.5884V23.2941C13.5884 24.3662 14.4575 25.2353 15.5296 25.2353C16.6017 25.2353 17.4708 24.3662 17.4708 23.2941V17.4706H23.2943C24.3664 17.4706 25.2355 16.6015 25.2355 15.5294C25.2355 14.4573 24.3664 13.5882 23.2943 13.5882L17.4708 13.5882V7.76469C17.4708 6.69261 16.6017 5.82352 15.5296 5.82352Z" fill="white"/>
</svg>
