<svg width="18" height="18" viewBox="0 0 18 18" fill="none" xmlns="http://www.w3.org/2000/svg">
<g clip-path="url(#clip0_44_3405)">
<path d="M9.00001 11.978L11.978 9.00001M11.978 9.00001L9.00001 6.02207M11.978 9.00001H1.05884M1.05884 4.28298V4.23551C1.05884 3.12363 1.05884 2.56728 1.27522 2.14261C1.46556 1.76905 1.76905 1.46556 2.14261 1.27522C2.56728 1.05884 3.12363 1.05884 4.23551 1.05884H13.7649C14.8768 1.05884 15.432 1.05884 15.8566 1.27522C16.2302 1.46556 16.5347 1.76905 16.725 2.14261C16.9412 2.56687 16.9412 3.12254 16.9412 4.23224V13.7683C16.9412 14.878 16.9412 15.4329 16.725 15.8571C16.5347 16.2307 16.2302 16.5347 15.8566 16.725C15.4324 16.9412 14.8775 16.9412 13.7678 16.9412H4.23224C3.12254 16.9412 2.56687 16.9412 2.14261 16.725C1.76905 16.5347 1.46556 16.2304 1.27522 15.8568C1.05884 15.4322 1.05884 14.8766 1.05884 13.7647V13.7151" stroke="black" stroke-width="2" stroke-linecap="round" stroke-linejoin="round"/>
</g>
<defs>
<clipPath id="clip0_44_3405">
<rect width="18" height="18" fill="white"/>
</clipPath>
</defs>
</svg>
