<svg width="34" height="34" viewBox="0 0 34 34" fill="none" xmlns="http://www.w3.org/2000/svg">
<g clip-path="url(#clip0_54_6224)">
<rect x="2.94116" y="2.94116" width="31.0588" height="31.0588" rx="2.0625" fill="black"/>
<path opacity="0.836" fill-rule="evenodd" clip-rule="evenodd" d="M13.567 3.34586C14.2935 3.34586 15.02 3.34586 15.7464 3.34586C15.8396 4.15126 15.7185 4.91246 15.3832 5.62944C16.0796 6.88946 16.4428 8.23621 16.4729 9.66964C15.2621 9.66964 14.0513 9.66964 12.8406 9.66964C12.8707 8.23621 13.2339 6.88946 13.9303 5.62944C13.595 4.91246 13.4739 4.15126 13.567 3.34586Z" fill="black"/>
<path opacity="0.996" fill-rule="evenodd" clip-rule="evenodd" d="M3.0332 4.04855C6.18121 4.04855 9.32918 4.04855 12.4772 4.04855C11.8784 6.34226 11.6363 8.68441 11.7507 11.075C13.6879 11.075 15.6252 11.075 17.5624 11.075C17.6769 8.68441 17.4347 6.34226 16.836 4.04855C22.4055 4.04855 27.975 4.04855 33.5445 4.04855C33.5445 13.8855 33.5445 23.7225 33.5445 33.5595C23.3741 33.5595 13.2037 33.5595 3.0332 33.5595C3.0332 23.7225 3.0332 13.8855 3.0332 4.04855ZM4.48612 5.45384C6.42334 5.45384 8.36059 5.45384 10.2978 5.45384C10.2978 7.32754 10.2978 9.20127 10.2978 11.075C8.36059 11.075 6.42334 11.075 4.48612 11.075C4.48612 9.20127 4.48612 7.32754 4.48612 5.45384ZM19.0153 5.45384C20.9526 5.45384 22.8898 5.45384 24.827 5.45384C24.827 7.32754 24.827 9.20127 24.827 11.075C22.8898 11.075 20.9526 11.075 19.0153 11.075C19.0153 9.20127 19.0153 7.32754 19.0153 5.45384ZM26.2799 5.45384C28.2172 5.45384 30.1544 5.45384 32.0916 5.45384C32.0916 7.32754 32.0916 9.20127 32.0916 11.075C30.1544 11.075 28.2172 11.075 26.2799 11.075C26.2799 9.20127 26.2799 7.32754 26.2799 5.45384ZM4.48612 12.4803C6.42334 12.4803 8.36059 12.4803 10.2978 12.4803C10.2978 14.354 10.2978 16.2277 10.2978 18.1014C8.36059 18.1014 6.42334 18.1014 4.48612 18.1014C4.48612 16.2277 4.48612 14.354 4.48612 12.4803ZM11.7507 12.4803C16.1095 12.4803 20.4683 12.4803 24.827 12.4803C24.827 16.6961 24.827 20.912 24.827 25.1278C20.4683 25.1278 16.1095 25.1278 11.7507 25.1278C11.7507 20.912 11.7507 16.6961 11.7507 12.4803ZM26.2799 12.4803C28.2172 12.4803 30.1544 12.4803 32.0916 12.4803C32.0916 14.354 32.0916 16.2277 32.0916 18.1014C30.1544 18.1014 28.2172 18.1014 26.2799 18.1014C26.2799 16.2277 26.2799 14.354 26.2799 12.4803ZM15.383 15.2908C17.3202 15.2908 19.2575 15.2908 21.1947 15.2908C21.1947 16.2277 21.1947 17.1645 21.1947 18.1014C19.2575 18.1014 17.3202 18.1014 15.383 18.1014C15.383 17.1645 15.383 16.2277 15.383 15.2908ZM4.48612 19.5067C6.42334 19.5067 8.36059 19.5067 10.2978 19.5067C10.2978 21.3804 10.2978 23.2541 10.2978 25.1278C8.36059 25.1278 6.42334 25.1278 4.48612 25.1278C4.48612 23.2541 4.48612 21.3804 4.48612 19.5067ZM26.2799 19.5067C28.2172 19.5067 30.1544 19.5067 32.0916 19.5067C32.0916 21.3804 32.0916 23.2541 32.0916 25.1278C30.1544 25.1278 28.2172 25.1278 26.2799 25.1278C26.2799 23.2541 26.2799 21.3804 26.2799 19.5067ZM4.48612 26.5331C6.42334 26.5331 8.36059 26.5331 10.2978 26.5331C10.2978 28.4068 10.2978 30.2805 10.2978 32.1542C8.36059 32.1542 6.42334 32.1542 4.48612 32.1542C4.48612 30.2805 4.48612 28.4068 4.48612 26.5331ZM11.7507 26.5331C13.6879 26.5331 15.6252 26.5331 17.5624 26.5331C17.5624 28.4068 17.5624 30.2805 17.5624 32.1542C15.6252 32.1542 13.6879 32.1542 11.7507 32.1542C11.7507 30.2805 11.7507 28.4068 11.7507 26.5331ZM19.0153 26.5331C20.9526 26.5331 22.8898 26.5331 24.827 26.5331C24.827 28.4068 24.827 30.2805 24.827 32.1542C22.8898 32.1542 20.9526 32.1542 19.0153 32.1542C19.0153 30.2805 19.0153 28.4068 19.0153 26.5331ZM26.2799 26.5331C28.2172 26.5331 30.1544 26.5331 32.0916 26.5331C32.0916 28.4068 32.0916 30.2805 32.0916 32.1542C30.1544 32.1542 28.2172 32.1542 26.2799 32.1542C26.2799 30.2805 26.2799 28.4068 26.2799 26.5331Z" fill="black"/>
<path opacity="0.985" fill-rule="evenodd" clip-rule="evenodd" d="M13.9302 13.8856C16.836 13.8856 19.7419 13.8856 22.6477 13.8856C22.6477 15.7593 22.6477 17.633 22.6477 19.5067C19.7419 19.5067 16.836 19.5067 13.9302 19.5067C13.9302 17.633 13.9302 15.7593 13.9302 13.8856ZM15.3831 15.2909C15.3831 16.2277 15.3831 17.1646 15.3831 18.1014C17.3203 18.1014 19.2576 18.1014 21.1948 18.1014C21.1948 17.1646 21.1948 16.2277 21.1948 15.2909C19.2576 15.2909 17.3203 15.2909 15.3831 15.2909Z" fill="black"/>
<path fill-rule="evenodd" clip-rule="evenodd" d="M14.6567 20.912C15.6254 20.912 16.594 20.912 17.5626 20.912C17.5626 21.8489 17.5626 22.7857 17.5626 23.7226C16.594 23.7226 15.6254 23.7226 14.6567 23.7226C14.6567 22.7857 14.6567 21.8489 14.6567 20.912Z" fill="black"/>
<path fill-rule="evenodd" clip-rule="evenodd" d="M19.3945 20.912C20.3632 20.912 21.3317 20.912 22.3004 20.912C22.3004 21.8489 22.3004 22.7857 22.3004 23.7226C21.3317 23.7226 20.3632 23.7226 19.3945 23.7226C19.3945 22.7857 19.3945 21.8489 19.3945 20.912Z" fill="black"/>
</g>
<rect x="0.5" y="0.5" width="32.0588" height="32.0588" rx="2.5625" fill="white"/>
<rect x="0.5" y="0.5" width="32.0588" height="32.0588" rx="2.5625" stroke="black"/>
<rect x="1" y="1" width="31" height="31" fill="#A460FF"/>
<path opacity="0.836" fill-rule="evenodd" clip-rule="evenodd" d="M11.6259 1.40472C12.3523 1.40472 13.0788 1.40472 13.8053 1.40472C13.8984 2.21013 13.7773 2.97132 13.442 3.68831C14.1384 4.94832 14.5016 6.29508 14.5317 7.7285C13.321 7.7285 12.1102 7.7285 10.8994 7.7285C10.9295 6.29508 11.2927 4.94832 11.9891 3.68831C11.6538 2.97132 11.5327 2.21013 11.6259 1.40472Z" fill="white"/>
<path opacity="0.996" fill-rule="evenodd" clip-rule="evenodd" d="M1 1C4.20449 1 7.50099 1 10.7055 1C10.096 3.41401 9.84948 5.87901 9.96599 8.39496C11.938 8.39496 13.91 8.39496 15.882 8.39496C15.9985 5.87901 15.752 3.41401 15.1425 1C20.8119 1 26.3305 1 32 1C32 11.3529 32 21.6471 32 32C21.6471 32 11.3529 32 1 32C1 21.6471 1 11.3529 1 1ZM2.57103 3.47899C2.57103 2.92671 3.01875 2.47899 3.57103 2.47899C5.20969 2.47899 6.84835 2.47899 8.487 2.47899C8.487 4.45097 8.487 6.42298 8.487 8.39496C6.51502 8.39496 4.54301 8.39496 2.57103 8.39496C2.57103 6.75631 2.57103 5.11764 2.57103 3.47899ZM17.3609 2.47899C19.3329 2.47899 21.3049 2.47899 23.2769 2.47899C23.2769 4.45097 23.2769 6.42298 23.2769 8.39496C21.3049 8.39496 19.3329 8.39496 17.3609 8.39496C17.3609 6.42298 17.3609 4.45097 17.3609 2.47899ZM24.7559 2.47899C26.3946 2.47899 28.0332 2.47899 29.6719 2.47899C30.2242 2.47899 30.6719 2.92671 30.6719 3.47899C30.6719 5.11764 30.6719 6.75631 30.6719 8.39496C28.6999 8.39496 26.7279 8.39496 24.7559 8.39496C24.7559 6.42298 24.7559 4.45097 24.7559 2.47899ZM2.57103 9.87395C4.54301 9.87395 6.51502 9.87395 8.487 9.87395C8.487 11.8459 8.487 13.8179 8.487 15.7899C6.51502 15.7899 4.54301 15.7899 2.57103 15.7899C2.57103 13.8179 2.57103 11.8459 2.57103 9.87395ZM9.96599 9.87395C14.403 9.87395 18.8399 9.87395 23.2769 9.87395C23.2769 14.3109 23.2769 18.7479 23.2769 23.1849C18.8399 23.1849 14.403 23.1849 9.96599 23.1849C9.96599 18.7479 9.96599 14.3109 9.96599 9.87395ZM24.7559 9.87395C26.7279 9.87395 28.6999 9.87395 30.6719 9.87395C30.6719 11.8459 30.6719 13.8179 30.6719 15.7899C28.6999 15.7899 26.7279 15.7899 24.7559 15.7899C24.7559 13.8179 24.7559 11.8459 24.7559 9.87395ZM13.6635 12.8319C15.6354 12.8319 17.6075 12.8319 19.5794 12.8319C19.5794 13.8179 19.5794 14.8039 19.5794 15.7899C17.6075 15.7899 15.6354 15.7899 13.6635 15.7899C13.6635 14.8039 13.6635 13.8179 13.6635 12.8319ZM2.57103 17.2689C4.54301 17.2689 6.51502 17.2689 8.487 17.2689C8.487 19.2409 8.487 21.2129 8.487 23.1849C6.51502 23.1849 4.54301 23.1849 2.57103 23.1849C2.57103 21.2129 2.57103 19.2409 2.57103 17.2689ZM24.7559 17.2689C26.7279 17.2689 28.6999 17.2689 30.6719 17.2689C30.6719 19.2409 30.6719 21.2129 30.6719 23.1849C28.6999 23.1849 26.7279 23.1849 24.7559 23.1849C24.7559 21.2129 24.7559 19.2409 24.7559 17.2689ZM2.57103 24.6639C4.54301 24.6639 6.51502 24.6639 8.487 24.6639C8.487 26.6358 8.487 28.6079 8.487 30.5798C6.84835 30.5798 5.20969 30.5798 3.57103 30.5798C3.01875 30.5798 2.57103 30.1321 2.57103 29.5798C2.57103 27.9412 2.57103 26.3025 2.57103 24.6639ZM9.96599 24.6639C11.938 24.6639 13.91 24.6639 15.882 24.6639C15.882 26.6358 15.882 28.6079 15.882 30.5798C13.91 30.5798 11.938 30.5798 9.96599 30.5798C9.96599 28.6079 9.96599 26.6358 9.96599 24.6639ZM17.3609 24.6639C19.3329 24.6639 21.3049 24.6639 23.2769 24.6639C23.2769 26.6358 23.2769 28.6079 23.2769 30.5798C21.3049 30.5798 19.3329 30.5798 17.3609 30.5798C17.3609 28.6079 17.3609 26.6358 17.3609 24.6639ZM24.7559 24.6639C26.7279 24.6639 28.6999 24.6639 30.6719 24.6639C30.6719 26.3025 30.6719 27.9412 30.6719 29.5798C30.6719 30.1321 30.2242 30.5798 29.6719 30.5798C28.0332 30.5798 26.3946 30.5798 24.7559 30.5798C24.7559 28.6079 24.7559 26.6358 24.7559 24.6639Z" fill="white"/>
<path opacity="0.985" fill-rule="evenodd" clip-rule="evenodd" d="M11.989 11.9445C14.8949 11.9445 17.8007 11.9445 20.7065 11.9445C20.7065 13.8182 20.7065 15.6919 20.7065 17.5656C17.8007 17.5656 14.8949 17.5656 11.989 17.5656C11.989 15.6919 11.989 13.8182 11.989 11.9445Z" fill="white"/>
<path fill-rule="evenodd" clip-rule="evenodd" d="M12.7156 18.9708C13.6842 18.9708 14.6528 18.9708 15.6214 18.9708C15.6214 19.9077 15.6214 20.8445 15.6214 21.7814C14.6528 21.7814 13.6842 21.7814 12.7156 21.7814C12.7156 20.8445 12.7156 19.9077 12.7156 18.9708Z" fill="white"/>
<path fill-rule="evenodd" clip-rule="evenodd" d="M17.4534 18.9708C18.422 18.9708 19.3906 18.9708 20.3592 18.9708C20.3592 19.9077 20.3592 20.8445 20.3592 21.7814C19.3906 21.7814 18.422 21.7814 17.4534 21.7814C17.4534 20.8445 17.4534 19.9077 17.4534 18.9708Z" fill="white"/>
<defs>
<clipPath id="clip0_54_6224">
<rect x="2.94116" y="2.94116" width="31.0588" height="31.0588" rx="2.0625" fill="white"/>
</clipPath>
</defs>
</svg>
