<svg width="33" height="33" viewBox="0 0 33 33" fill="none" xmlns="http://www.w3.org/2000/svg">
<g clip-path="url(#clip0_54_6184)">
<rect x="1.94116" y="1.94116" width="31.0588" height="31.0588" rx="2.0625" fill="black"/>
<path opacity="0.836" fill-rule="evenodd" clip-rule="evenodd" d="M12.567 2.34586C13.2935 2.34586 14.02 2.34586 14.7464 2.34586C14.8396 3.15126 14.7185 3.91246 14.3832 4.62944C15.0796 5.88946 15.4428 7.23621 15.4729 8.66964C14.2621 8.66964 13.0513 8.66964 11.8406 8.66964C11.8707 7.23621 12.2339 5.88946 12.9303 4.62944C12.595 3.91246 12.4739 3.15126 12.567 2.34586Z" fill="black"/>
<path opacity="0.996" fill-rule="evenodd" clip-rule="evenodd" d="M2.0332 3.04855C5.18121 3.04855 8.32918 3.04855 11.4772 3.04855C10.8784 5.34226 10.6363 7.68441 10.7507 10.075C12.6879 10.075 14.6252 10.075 16.5624 10.075C16.6769 7.68441 16.4347 5.34226 15.836 3.04855C21.4055 3.04855 26.975 3.04855 32.5445 3.04855C32.5445 12.8855 32.5445 22.7225 32.5445 32.5595C22.3741 32.5595 12.2037 32.5595 2.0332 32.5595C2.0332 22.7225 2.0332 12.8855 2.0332 3.04855ZM3.48612 4.45384C5.42334 4.45384 7.36059 4.45384 9.29781 4.45384C9.29781 6.32754 9.29781 8.20127 9.29781 10.075C7.36059 10.075 5.42334 10.075 3.48612 10.075C3.48612 8.20127 3.48612 6.32754 3.48612 4.45384ZM18.0153 4.45384C19.9526 4.45384 21.8898 4.45384 23.827 4.45384C23.827 6.32754 23.827 8.20127 23.827 10.075C21.8898 10.075 19.9526 10.075 18.0153 10.075C18.0153 8.20127 18.0153 6.32754 18.0153 4.45384ZM25.2799 4.45384C27.2172 4.45384 29.1544 4.45384 31.0916 4.45384C31.0916 6.32754 31.0916 8.20127 31.0916 10.075C29.1544 10.075 27.2172 10.075 25.2799 10.075C25.2799 8.20127 25.2799 6.32754 25.2799 4.45384ZM3.48612 11.4803C5.42334 11.4803 7.36059 11.4803 9.29781 11.4803C9.29781 13.354 9.29781 15.2277 9.29781 17.1014C7.36059 17.1014 5.42334 17.1014 3.48612 17.1014C3.48612 15.2277 3.48612 13.354 3.48612 11.4803ZM10.7507 11.4803C15.1095 11.4803 19.4683 11.4803 23.827 11.4803C23.827 15.6961 23.827 19.912 23.827 24.1278C19.4683 24.1278 15.1095 24.1278 10.7507 24.1278C10.7507 19.912 10.7507 15.6961 10.7507 11.4803ZM25.2799 11.4803C27.2172 11.4803 29.1544 11.4803 31.0916 11.4803C31.0916 13.354 31.0916 15.2277 31.0916 17.1014C29.1544 17.1014 27.2172 17.1014 25.2799 17.1014C25.2799 15.2277 25.2799 13.354 25.2799 11.4803ZM14.383 14.2908C16.3202 14.2908 18.2575 14.2908 20.1947 14.2908C20.1947 15.2277 20.1947 16.1645 20.1947 17.1014C18.2575 17.1014 16.3202 17.1014 14.383 17.1014C14.383 16.1645 14.383 15.2277 14.383 14.2908ZM3.48612 18.5067C5.42334 18.5067 7.36059 18.5067 9.29781 18.5067C9.29781 20.3804 9.29781 22.2541 9.29781 24.1278C7.36059 24.1278 5.42334 24.1278 3.48612 24.1278C3.48612 22.2541 3.48612 20.3804 3.48612 18.5067ZM25.2799 18.5067C27.2172 18.5067 29.1544 18.5067 31.0916 18.5067C31.0916 20.3804 31.0916 22.2541 31.0916 24.1278C29.1544 24.1278 27.2172 24.1278 25.2799 24.1278C25.2799 22.2541 25.2799 20.3804 25.2799 18.5067ZM3.48612 25.5331C5.42334 25.5331 7.36059 25.5331 9.29781 25.5331C9.29781 27.4068 9.29781 29.2805 9.29781 31.1542C7.36059 31.1542 5.42334 31.1542 3.48612 31.1542C3.48612 29.2805 3.48612 27.4068 3.48612 25.5331ZM10.7507 25.5331C12.6879 25.5331 14.6252 25.5331 16.5624 25.5331C16.5624 27.4068 16.5624 29.2805 16.5624 31.1542C14.6252 31.1542 12.6879 31.1542 10.7507 31.1542C10.7507 29.2805 10.7507 27.4068 10.7507 25.5331ZM18.0153 25.5331C19.9526 25.5331 21.8898 25.5331 23.827 25.5331C23.827 27.4068 23.827 29.2805 23.827 31.1542C21.8898 31.1542 19.9526 31.1542 18.0153 31.1542C18.0153 29.2805 18.0153 27.4068 18.0153 25.5331ZM25.2799 25.5331C27.2172 25.5331 29.1544 25.5331 31.0916 25.5331C31.0916 27.4068 31.0916 29.2805 31.0916 31.1542C29.1544 31.1542 27.2172 31.1542 25.2799 31.1542C25.2799 29.2805 25.2799 27.4068 25.2799 25.5331Z" fill="black"/>
<path opacity="0.985" fill-rule="evenodd" clip-rule="evenodd" d="M12.9302 12.8856C15.836 12.8856 18.7419 12.8856 21.6477 12.8856C21.6477 14.7593 21.6477 16.633 21.6477 18.5067C18.7419 18.5067 15.836 18.5067 12.9302 18.5067C12.9302 16.633 12.9302 14.7593 12.9302 12.8856ZM14.3831 14.2909C14.3831 15.2277 14.3831 16.1646 14.3831 17.1014C16.3203 17.1014 18.2576 17.1014 20.1948 17.1014C20.1948 16.1646 20.1948 15.2277 20.1948 14.2909C18.2576 14.2909 16.3203 14.2909 14.3831 14.2909Z" fill="black"/>
<path fill-rule="evenodd" clip-rule="evenodd" d="M13.6567 19.912C14.6254 19.912 15.594 19.912 16.5626 19.912C16.5626 20.8489 16.5626 21.7857 16.5626 22.7226C15.594 22.7226 14.6254 22.7226 13.6567 22.7226C13.6567 21.7857 13.6567 20.8489 13.6567 19.912Z" fill="black"/>
<path fill-rule="evenodd" clip-rule="evenodd" d="M18.3945 19.912C19.3632 19.912 20.3317 19.912 21.3004 19.912C21.3004 20.8489 21.3004 21.7857 21.3004 22.7226C20.3317 22.7226 19.3632 22.7226 18.3945 22.7226C18.3945 21.7857 18.3945 20.8489 18.3945 19.912Z" fill="black"/>
</g>
<rect width="31.0588" height="31.0588" rx="2.0625" fill="black"/>
<rect width="31" height="31" fill="white"/>
<path opacity="0.836" fill-rule="evenodd" clip-rule="evenodd" d="M10.6259 0.404724C11.3523 0.404724 12.0788 0.404724 12.8053 0.404724C12.8984 1.21013 12.7773 1.97132 12.442 2.68831C13.1384 3.94832 13.5016 5.29508 13.5317 6.7285C12.321 6.7285 11.1102 6.7285 9.89941 6.7285C9.92949 5.29508 10.2927 3.94832 10.9891 2.68831C10.6538 1.97132 10.5327 1.21013 10.6259 0.404724Z" fill="black"/>
<path opacity="0.996" fill-rule="evenodd" clip-rule="evenodd" d="M0 0C3.20449 0 6.50099 0 9.70549 0C9.09596 2.41401 8.84948 4.87901 8.96599 7.39496C10.938 7.39496 12.91 7.39496 14.882 7.39496C14.9985 4.87901 14.752 2.41401 14.1425 0C19.8119 0 25.3305 0 31 0C31 10.3529 31 20.6471 31 31C20.6471 31 10.3529 31 0 31C0 20.6471 0 10.3529 0 0ZM1.57103 2.47899C1.57103 1.92671 2.01875 1.47899 2.57103 1.47899C4.20969 1.47899 5.84835 1.47899 7.487 1.47899C7.487 3.45097 7.487 5.42298 7.487 7.39496C5.51502 7.39496 3.54301 7.39496 1.57103 7.39496C1.57103 5.75631 1.57103 4.11764 1.57103 2.47899ZM16.3609 1.47899C18.3329 1.47899 20.3049 1.47899 22.2769 1.47899C22.2769 3.45097 22.2769 5.42298 22.2769 7.39496C20.3049 7.39496 18.3329 7.39496 16.3609 7.39496C16.3609 5.42298 16.3609 3.45097 16.3609 1.47899ZM23.7559 1.47899C25.3946 1.47899 27.0332 1.47899 28.6719 1.47899C29.2242 1.47899 29.6719 1.92671 29.6719 2.47899C29.6719 4.11764 29.6719 5.75631 29.6719 7.39496C27.6999 7.39496 25.7279 7.39496 23.7559 7.39496C23.7559 5.42298 23.7559 3.45097 23.7559 1.47899ZM1.57103 8.87395C3.54301 8.87395 5.51502 8.87395 7.487 8.87395C7.487 10.8459 7.487 12.8179 7.487 14.7899C5.51502 14.7899 3.54301 14.7899 1.57103 14.7899C1.57103 12.8179 1.57103 10.8459 1.57103 8.87395ZM8.96599 8.87395C13.403 8.87395 17.8399 8.87395 22.2769 8.87395C22.2769 13.3109 22.2769 17.7479 22.2769 22.1849C17.8399 22.1849 13.403 22.1849 8.96599 22.1849C8.96599 17.7479 8.96599 13.3109 8.96599 8.87395ZM23.7559 8.87395C25.7279 8.87395 27.6999 8.87395 29.6719 8.87395C29.6719 10.8459 29.6719 12.8179 29.6719 14.7899C27.6999 14.7899 25.7279 14.7899 23.7559 14.7899C23.7559 12.8179 23.7559 10.8459 23.7559 8.87395ZM12.6635 11.8319C14.6354 11.8319 16.6075 11.8319 18.5794 11.8319C18.5794 12.8179 18.5794 13.8039 18.5794 14.7899C16.6075 14.7899 14.6354 14.7899 12.6635 14.7899C12.6635 13.8039 12.6635 12.8179 12.6635 11.8319ZM1.57103 16.2689C3.54301 16.2689 5.51502 16.2689 7.487 16.2689C7.487 18.2409 7.487 20.2129 7.487 22.1849C5.51502 22.1849 3.54301 22.1849 1.57103 22.1849C1.57103 20.2129 1.57103 18.2409 1.57103 16.2689ZM23.7559 16.2689C25.7279 16.2689 27.6999 16.2689 29.6719 16.2689C29.6719 18.2409 29.6719 20.2129 29.6719 22.1849C27.6999 22.1849 25.7279 22.1849 23.7559 22.1849C23.7559 20.2129 23.7559 18.2409 23.7559 16.2689ZM1.57103 23.6639C3.54301 23.6639 5.51502 23.6639 7.487 23.6639C7.487 25.6358 7.487 27.6079 7.487 29.5798C5.84835 29.5798 4.20969 29.5798 2.57103 29.5798C2.01875 29.5798 1.57103 29.1321 1.57103 28.5798C1.57103 26.9412 1.57103 25.3025 1.57103 23.6639ZM8.96599 23.6639C10.938 23.6639 12.91 23.6639 14.882 23.6639C14.882 25.6358 14.882 27.6079 14.882 29.5798C12.91 29.5798 10.938 29.5798 8.96599 29.5798C8.96599 27.6079 8.96599 25.6358 8.96599 23.6639ZM16.3609 23.6639C18.3329 23.6639 20.3049 23.6639 22.2769 23.6639C22.2769 25.6358 22.2769 27.6079 22.2769 29.5798C20.3049 29.5798 18.3329 29.5798 16.3609 29.5798C16.3609 27.6079 16.3609 25.6358 16.3609 23.6639ZM23.7559 23.6639C25.7279 23.6639 27.6999 23.6639 29.6719 23.6639C29.6719 25.3025 29.6719 26.9412 29.6719 28.5798C29.6719 29.1321 29.2242 29.5798 28.6719 29.5798C27.0332 29.5798 25.3946 29.5798 23.7559 29.5798C23.7559 27.6079 23.7559 25.6358 23.7559 23.6639Z" fill="black"/>
<path opacity="0.985" fill-rule="evenodd" clip-rule="evenodd" d="M10.989 10.9445C13.8949 10.9445 16.8007 10.9445 19.7065 10.9445C19.7065 12.8182 19.7065 14.6919 19.7065 16.5656C16.8007 16.5656 13.8949 16.5656 10.989 16.5656C10.989 14.6919 10.989 12.8182 10.989 10.9445Z" fill="black"/>
<path fill-rule="evenodd" clip-rule="evenodd" d="M11.7156 17.9708C12.6842 17.9708 13.6528 17.9708 14.6214 17.9708C14.6214 18.9077 14.6214 19.8445 14.6214 20.7814C13.6528 20.7814 12.6842 20.7814 11.7156 20.7814C11.7156 19.8445 11.7156 18.9077 11.7156 17.9708Z" fill="black"/>
<path fill-rule="evenodd" clip-rule="evenodd" d="M16.4534 17.9708C17.422 17.9708 18.3906 17.9708 19.3592 17.9708C19.3592 18.9077 19.3592 19.8445 19.3592 20.7814C18.3906 20.7814 17.422 20.7814 16.4534 20.7814C16.4534 19.8445 16.4534 18.9077 16.4534 17.9708Z" fill="black"/>
<defs>
<clipPath id="clip0_54_6184">
<rect x="1.94116" y="1.94116" width="31.0588" height="31.0588" rx="2.0625" fill="white"/>
</clipPath>
</defs>
</svg>
