<svg width="50" height="33" viewBox="0 0 50 33" fill="none" xmlns="http://www.w3.org/2000/svg">
<path d="M4.67285 16.7315V29.0001C4.67285 31.2092 6.46371 33.0001 8.67285 33.0001H45.6057C47.8148 33.0001 49.6057 31.2092 49.6057 29.0001V20.6387C49.6057 18.4295 47.8148 16.6387 45.6057 16.6387H38.9537C36.7445 16.6387 34.9537 14.8478 34.9537 12.6387V8.67285C34.9537 6.46371 33.1628 4.67285 30.9537 4.67285H22.8365C20.6273 4.67285 18.8365 6.49302 18.8365 8.70215C18.8365 10.9113 17.0456 12.7315 14.8365 12.7315H8.67285C6.46371 12.7315 4.67285 14.5223 4.67285 16.7315Z" fill="black"/>
<path d="M1 13.0586V25.3272C1 27.5364 2.79086 29.3272 5 29.3272H41.9328C44.142 29.3272 45.9328 27.5364 45.9328 25.3272V16.9658C45.9328 14.7567 44.142 12.9658 41.9328 12.9658H35.2808C33.0717 12.9658 31.2808 11.175 31.2808 8.96581V5C31.2808 2.79086 29.49 1 27.2808 1H19.1636C16.9545 1 15.1636 2.82016 15.1636 5.0293C15.1636 7.23844 13.3727 9.05861 11.1636 9.05861H5C2.79086 9.05861 1 10.8495 1 13.0586Z" fill="#A460FF" stroke="black"/>
<path d="M22.635 13.6985V6.37154L21.581 7.64138H19.7778L22.3683 4.55566H24.0064V13.6985H22.635Z" fill="white"/>
<path d="M4.26807 22.0013V18.5346C4.26807 18.2214 4.34002 17.942 4.48394 17.6965C4.63632 17.451 4.83526 17.2563 5.08076 17.1124C5.33473 16.96 5.6141 16.8838 5.91886 16.8838H11.722C11.8067 16.8838 11.8786 16.8542 11.9379 16.7949C12.0056 16.7272 12.0395 16.651 12.0395 16.5663V14.5473C12.0395 14.4626 12.0056 14.3907 11.9379 14.3314C11.8786 14.2637 11.8067 14.2298 11.722 14.2298H5.95696C5.8723 14.2298 5.79611 14.2637 5.72838 14.3314C5.66912 14.3907 5.63949 14.4626 5.63949 14.5473V15.0425H4.26807V14.5092C4.26807 14.196 4.34002 13.9166 4.48394 13.6711C4.63632 13.4256 4.83526 13.2267 5.08076 13.0743C5.33473 12.9219 5.6141 12.8457 5.91886 12.8457H11.7601C12.0564 12.8457 12.3273 12.9219 12.5728 13.0743C12.8268 13.2267 13.03 13.4256 13.1824 13.6711C13.3347 13.9166 13.4109 14.196 13.4109 14.5092V16.6044C13.4109 16.9092 13.3347 17.1886 13.1824 17.4425C13.03 17.688 12.8268 17.887 12.5728 18.0394C12.3273 18.1833 12.0564 18.2552 11.7601 18.2552H5.95696C5.8723 18.2552 5.79611 18.2891 5.72838 18.3568C5.66912 18.4161 5.63949 18.488 5.63949 18.5727V20.3124C5.63949 20.397 5.66912 20.4732 5.72838 20.5409C5.79611 20.6002 5.8723 20.6298 5.95696 20.6298H13.4109V22.0013H4.26807Z" fill="white"/>
<path d="M34.7211 25.42C34.4079 25.42 34.1285 25.3438 33.883 25.1914C33.6375 25.039 33.4386 24.8401 33.2862 24.5946C33.1338 24.3491 33.0576 24.0739 33.0576 23.7692V23.3882H34.4417V23.7311C34.4417 23.8157 34.4714 23.8919 34.5306 23.9596C34.5899 24.0189 34.6618 24.0485 34.7465 24.0485H40.5243C40.6089 24.0485 40.6809 24.0189 40.7402 23.9596C40.7994 23.8919 40.829 23.8157 40.829 23.7311V21.7755C40.829 21.6909 40.7994 21.6189 40.7402 21.5596C40.6809 21.4919 40.6089 21.4581 40.5243 21.4581H34.7211V20.0866H40.1306C40.2238 20.0866 40.2999 20.057 40.3592 19.9977C40.4185 19.93 40.4481 19.8538 40.4481 19.7692V17.966C40.4481 17.8813 40.4185 17.8094 40.3592 17.7501C40.2999 17.6824 40.2238 17.6485 40.1306 17.6485H34.7465C34.6618 17.6485 34.5899 17.6824 34.5306 17.7501C34.4714 17.8094 34.4417 17.8813 34.4417 17.966V18.4358H33.0576V17.9279C33.0576 17.6147 33.1296 17.3353 33.2735 17.0898C33.4259 16.8443 33.629 16.6454 33.883 16.493C34.137 16.3406 34.4163 16.2644 34.7211 16.2644H40.1687C40.482 16.2644 40.7613 16.3406 41.0068 16.493C41.2608 16.6454 41.4597 16.8443 41.6036 17.0898C41.7476 17.3353 41.8195 17.6147 41.8195 17.9279V19.8073C41.8195 19.9173 41.8068 20.0274 41.7814 20.1374C41.7645 20.2475 41.7349 20.3491 41.6925 20.4422C41.8788 20.6284 42.01 20.8358 42.0862 21.0644C42.1624 21.293 42.2005 21.5173 42.2005 21.7374V23.7692C42.2005 24.0739 42.1243 24.3491 41.9719 24.5946C41.828 24.8401 41.629 25.039 41.3751 25.1914C41.1296 25.3438 40.8587 25.42 40.5624 25.42H34.7211Z" fill="white"/>
</svg>
